<svg width="17" height="24" viewBox="0 0 17 24" fill="none" xmlns="http://www.w3.org/2000/svg">
<path d="M8.4 0C3.756 0 0 3.756 0 8.4C0 10.488 0.6 12.444 1.692 14.208C2.832 16.056 4.332 17.64 5.484 19.488C6.048 20.388 6.456 21.228 6.888 22.2C7.2 22.86 7.452 24 8.4 24C9.348 24 9.6 22.86 9.9 22.2C10.344 21.228 10.74 20.388 11.304 19.488C12.456 17.652 13.956 16.068 15.096 14.208C16.2 12.444 16.8 10.488 16.8 8.4C16.8 3.756 13.044 0 8.4 0ZM8.4 11.7C6.744 11.7 5.4 10.356 5.4 8.7C5.4 7.044 6.744 5.7 8.4 5.7C10.056 5.7 11.4 7.044 11.4 8.7C11.4 10.356 10.056 11.7 8.4 11.7Z" fill="white"/>
</svg>
